<?xml version="1.0" standalone="no"?>
<!DOCTYPE svg PUBLIC "-//W3C//DTD SVG 20010904//EN"
 "http://www.w3.org/TR/2001/REC-SVG-20010904/DTD/svg10.dtd">
<svg version="1.0" xmlns="http://www.w3.org/2000/svg"
 width="512.000000pt" height="512.000000pt" viewBox="0 0 512.000000 512.000000"
 preserveAspectRatio="xMidYMid meet">

<g transform="translate(0.000000,512.000000) scale(0.100000,-0.100000)"
fill="#000000" stroke="none">
<path d="M2245 4775 c-430 -61 -814 -220 -1153 -477 l-102 -78 -100 67 c-55
36 -102 64 -104 62 -8 -8 -51 -679 -44 -679 14 0 608 293 608 300 0 4 -34 29
-75 56 -41 27 -75 53 -75 58 0 5 28 34 62 65 270 245 576 402 933 478 120 25
147 27 360 27 212 0 240 -2 356 -27 392 -83 695 -245 983 -526 244 -238 417
-517 530 -851 159 -473 152 -1026 -20 -1484 -19 -54 -34 -103 -31 -110 5 -13
223 -166 236 -166 12 0 105 202 146 315 150 413 162 910 33 1355 -132 458
-417 874 -788 1151 -318 237 -628 370 -1050 450 -149 28 -548 36 -705 14z"/>
<path d="M2582 3813 c-31 -28 -35 -56 -11 -86 32 -41 83 -36 108 10 16 31 14
41 -14 68 -28 29 -55 32 -83 8z"/>
<path d="M2330 3777 c-32 -16 -40 -70 -14 -98 23 -26 68 -24 94 3 27 29 25 54
-5 83 -27 28 -39 30 -75 12z"/>
<path d="M2076 3689 c-48 -38 -25 -112 35 -112 35 0 69 32 69 65 0 22 -42 68
-63 68 -8 0 -26 -9 -41 -21z"/>
<path d="M1842 3560 c-44 -41 -16 -110 43 -110 38 0 65 28 65 67 0 28 -37 63
-65 63 -12 0 -31 -9 -43 -20z"/>
<path d="M1640 3390 c-42 -42 -16 -104 44 -104 40 0 65 24 66 62 0 29 -34 62
-65 62 -14 0 -34 -9 -45 -20z"/>
<path d="M1479 3197 c-38 -29 -31 -84 12 -108 31 -16 67 -3 85 32 15 30 15 33
-4 58 -21 29 -68 38 -93 18z"/>
<path d="M1350 2960 c-11 -11 -20 -30 -20 -43 0 -29 39 -67 68 -67 31 0 62 35
62 68 0 57 -69 83 -110 42z"/>
<path d="M1280 2710 c-28 -28 -25 -64 6 -89 15 -12 32 -21 39 -21 26 0 65 41
65 69 0 56 -70 81 -110 41z"/>
<path d="M1278 2464 c-72 -39 -20 -143 57 -114 46 17 46 97 0 118 -31 14 -24
15 -57 -4z"/>
<path d="M1302 2197 c-27 -29 -28 -57 -2 -85 39 -42 110 -17 110 39 0 61 -67
90 -108 46z"/>
<path d="M1396 1956 c-28 -27 -32 -52 -13 -77 43 -56 116 -37 117 32 0 33 -19
56 -52 64 -21 5 -33 1 -52 -19z"/>
<path d="M1535 1735 c-28 -27 -30 -37 -14 -68 16 -29 28 -37 60 -37 55 0 82
83 37 114 -32 22 -55 20 -83 -9z"/>
<path d="M1715 1545 c-30 -29 -31 -45 -4 -79 38 -49 112 -23 112 41 0 30 -34
63 -65 63 -10 0 -30 -11 -43 -25z"/>
<path d="M1925 1395 c-30 -29 -31 -45 -4 -79 34 -44 100 -30 114 25 8 33 -27
79 -61 79 -14 0 -36 -11 -49 -25z"/>
<path d="M2166 1289 c-32 -25 -33 -59 -3 -87 46 -43 107 -17 107 46 0 21 -7
36 -22 46 -30 21 -50 20 -82 -5z"/>
<path d="M2417 1222 c-38 -42 -9 -112 46 -112 26 0 67 40 67 65 0 7 -9 24 -21
39 -24 31 -68 35 -92 8z"/>
</g>
</svg>
